<svg xmlns="http://www.w3.org/2000/svg" width="390" height="340" viewBox="0 0 390 340" font-family="system-ui,Segoe UI,sans-serif">
<text x="195.0" y="24" text-anchor="middle" font-size="15" font-weight="600" fill="#1a1a1a">Held-out performance accuracy by section</text>
<text x="195.0" y="42" text-anchor="middle" font-size="11" fill="#888">SIMULATED responses (exercises the pipeline; not real answers)</text>
<line x1="56" y1="276.0" x2="366" y2="276.0" stroke="#ddd" stroke-width="1"/>
<text x="48" y="279.0" text-anchor="end" font-size="10" fill="#888">0.0%</text>
<line x1="56" y1="232.0" x2="366" y2="232.0" stroke="#ddd" stroke-width="1"/>
<text x="48" y="235.0" text-anchor="end" font-size="10" fill="#888">20.0%</text>
<line x1="56" y1="188.0" x2="366" y2="188.0" stroke="#ddd" stroke-width="1"/>
<text x="48" y="191.0" text-anchor="end" font-size="10" fill="#888">40.0%</text>
<line x1="56" y1="144.0" x2="366" y2="144.0" stroke="#ddd" stroke-width="1"/>
<text x="48" y="147.0" text-anchor="end" font-size="10" fill="#888">60.0%</text>
<line x1="56" y1="100.0" x2="366" y2="100.0" stroke="#ddd" stroke-width="1"/>
<text x="48" y="103.0" text-anchor="end" font-size="10" fill="#888">80.0%</text>
<line x1="56" y1="56.0" x2="366" y2="56.0" stroke="#ddd" stroke-width="1"/>
<text x="48" y="59.0" text-anchor="end" font-size="10" fill="#888">100.0%</text>
<rect x="76.7" y="147.7" width="62.0" height="128.3" rx="3" fill="#3b82f6" fill-opacity="0.75"/>
<text x="107.7" y="141.7" text-anchor="middle" font-size="11" font-weight="600" fill="#1a1a1a">58.3%</text>
<text x="107.7" y="292.0" text-anchor="middle" font-size="10" fill="#1a1a1a">BioBiochem</text>
<rect x="180.0" y="122.0" width="62.0" height="154.0" rx="3" fill="#3b82f6" fill-opacity="0.75"/>
<text x="211.0" y="116.0" text-anchor="middle" font-size="11" font-weight="600" fill="#1a1a1a">70.0%</text>
<text x="211.0" y="292.0" text-anchor="middle" font-size="10" fill="#1a1a1a">ChemPhys</text>
<rect x="283.3" y="166.0" width="62.0" height="110.0" rx="3" fill="#3b82f6" fill-opacity="0.75"/>
<text x="314.3" y="160.0" text-anchor="middle" font-size="11" font-weight="600" fill="#1a1a1a">50.0%</text>
<text x="314.3" y="292.0" text-anchor="middle" font-size="10" fill="#1a1a1a">PsychSoc</text>
</svg>